<svg width="150" height="150" viewBox="0 0 150 150" fill="none" xmlns="http://www.w3.org/2000/svg">
<g clip-path="url(#clip0_15_2)">
<path d="M95.2969 100.688L105.797 90.1875C107.211 88.7908 109 87.8348 110.947 87.4354C112.895 87.036 114.916 87.2104 116.766 87.9375L129.562 93.0469C131.432 93.8057 133.035 95.1009 134.169 96.7692C135.304 98.4376 135.919 100.404 135.937 102.422V125.859C135.927 127.232 135.638 128.588 135.089 129.846C134.541 131.104 133.743 132.238 132.744 133.179C131.746 134.121 130.567 134.851 129.279 135.325C127.991 135.799 126.621 136.007 125.25 135.938C35.5781 130.359 17.4844 54.4219 14.0625 25.3594C13.9036 23.9322 14.0488 22.4876 14.4883 21.1205C14.9279 19.7535 15.6519 18.495 16.6128 17.4278C17.5737 16.3607 18.7496 15.5091 20.0632 14.9291C21.3769 14.349 22.7984 14.0537 24.2344 14.0625H46.875C48.8953 14.0685 50.8677 14.6788 52.5384 15.8148C54.2091 16.9509 55.5017 18.5608 56.25 20.4375L61.3594 33.2344C62.1105 35.0769 62.3022 37.0999 61.9104 39.0507C61.5185 41.0015 60.5606 42.7936 59.1562 44.2031L48.6562 54.7031C48.6562 54.7031 54.7031 95.625 95.2969 100.688Z" fill="white"/>
</g>
<defs>
<clipPath id="clip0_15_2">
<rect width="150" height="150" fill="white"/>
</clipPath>
</defs>
</svg>
