<svg width="150" height="150" viewBox="0 0 150 150" fill="none" xmlns="http://www.w3.org/2000/svg">
<path d="M106.25 21.875C106.25 21.0462 105.921 20.2514 105.335 19.6653C104.749 19.0793 103.954 18.75 103.125 18.75H87.5C79.632 18.3581 71.9287 21.0962 66.0733 26.3662C60.2178 31.6361 56.6862 39.0094 56.25 46.875V63.75H40.625C39.7962 63.75 39.0013 64.0793 38.4153 64.6653C37.8292 65.2514 37.5 66.0462 37.5 66.875V83.125C37.5 83.9538 37.8292 84.7487 38.4153 85.3347C39.0013 85.9208 39.7962 86.25 40.625 86.25H56.25V128.125C56.25 128.954 56.5792 129.749 57.1653 130.335C57.7513 130.921 58.5462 131.25 59.375 131.25H78.125C78.9538 131.25 79.7487 130.921 80.3347 130.335C80.9208 129.749 81.25 128.954 81.25 128.125V86.25H97.625C98.3199 86.26 98.9984 86.038 99.553 85.6192C100.108 85.2004 100.507 84.6087 100.688 83.9375L105.187 67.6875C105.312 67.2258 105.329 66.7417 105.236 66.2725C105.144 65.8033 104.946 65.3615 104.656 64.9811C104.366 64.6007 103.993 64.2919 103.565 64.0785C103.137 63.8651 102.666 63.7527 102.188 63.75H81.25V46.875C81.4055 45.328 82.132 43.8945 83.2877 42.8544C84.4433 41.8142 85.9452 41.2422 87.5 41.25H103.125C103.954 41.25 104.749 40.9208 105.335 40.3347C105.921 39.7487 106.25 38.9538 106.25 38.125V21.875Z" fill="white"/>
</svg>
