<svg width="150" height="150" viewBox="0 0 150 150" fill="none" xmlns="http://www.w3.org/2000/svg">
<path fill-rule="evenodd" clip-rule="evenodd" d="M53.9741 23.309C59.4125 23.0562 61.1465 23 75 23C88.8535 23 90.5875 23.0609 96.0213 23.309C101.455 23.5571 105.164 24.4326 108.41 25.7014C111.808 26.9983 114.891 29.0255 117.441 31.6473C120.038 34.2176 122.041 37.3264 123.32 40.7628C124.581 44.0401 125.444 47.7855 125.694 53.2633C125.944 58.7644 126 60.5154 126 74.5C126 88.4893 125.94 90.2403 125.694 95.732C125.448 101.21 124.581 104.955 123.32 108.232C122.041 111.669 120.034 114.783 117.441 117.357C114.891 119.979 111.808 122.002 108.41 123.294C105.164 124.567 101.455 125.438 96.0305 125.691C90.5874 125.944 88.8535 126 75 126C61.1465 126 59.4125 125.939 53.9741 125.691C48.5495 125.443 44.8405 124.567 41.595 123.294C38.1915 122.002 35.1079 119.976 32.5587 117.357C29.9641 114.785 27.9563 111.673 26.6752 108.237C25.4187 104.96 24.5564 101.214 24.306 95.7367C24.0556 90.2356 24 88.4846 24 74.5C24 60.5107 24.0603 58.7597 24.306 53.2726C24.5517 47.7855 25.4187 44.0401 26.6752 40.7628C27.9582 37.3267 29.9676 34.2144 32.5634 31.6426C35.1089 29.0232 38.1895 26.9957 41.5904 25.7014C44.8358 24.4326 48.5449 23.5618 53.9695 23.309H53.9741ZM95.6086 32.579C90.2305 32.3309 88.617 32.2794 75 32.2794C61.383 32.2794 59.7695 32.3309 54.3914 32.579C49.4165 32.8084 46.7182 33.6465 44.9193 34.3534C42.5408 35.2898 40.8393 36.3994 39.0543 38.2019C37.3622 39.8642 36.06 41.8878 35.2432 44.1244C34.5431 45.9409 33.7132 48.6657 33.486 53.6893C33.2403 59.1202 33.1893 60.7495 33.1893 74.5C33.1893 88.2505 33.2403 89.8798 33.486 95.3107C33.7132 100.334 34.5431 103.059 35.2432 104.876C36.0592 107.109 37.362 109.136 39.0543 110.798C40.7002 112.507 42.7077 113.823 44.9193 114.647C46.7182 115.354 49.4165 116.192 54.3914 116.421C59.7695 116.669 61.3784 116.721 75 116.721C88.6216 116.721 90.2305 116.669 95.6086 116.421C100.583 116.192 103.282 115.354 105.081 114.647C107.459 113.71 109.161 112.601 110.946 110.798C112.638 109.136 113.941 107.109 114.757 104.876C115.457 103.059 116.287 100.334 116.514 95.3107C116.76 89.8798 116.811 88.2505 116.811 74.5C116.811 60.7495 116.76 59.1202 116.514 53.6893C116.287 48.6657 115.457 45.9409 114.757 44.1244C113.83 41.7226 112.731 40.0044 110.946 38.2019C109.299 36.4933 107.296 35.1784 105.081 34.3534C103.282 33.6465 100.583 32.8084 95.6086 32.579V32.579ZM68.4859 90.376C72.1239 91.9053 76.1748 92.1117 79.9467 90.96C83.7186 89.8083 86.9775 87.3699 89.1669 84.0614C91.3563 80.7529 92.3403 76.7794 91.9508 72.8197C91.5613 68.86 89.8225 65.1596 87.0314 62.3507C85.2521 60.5551 83.1007 59.1802 80.7321 58.325C78.3635 57.4698 75.8365 57.1556 73.3332 57.4049C70.8299 57.6542 68.4124 58.4609 66.2549 59.7669C64.0974 61.0729 62.2534 62.8458 60.8559 64.9578C59.4583 67.0698 58.5418 69.4684 58.1724 71.981C57.803 74.4936 57.9899 77.0576 58.7196 79.4886C59.4493 81.9195 60.7037 84.1568 62.3924 86.0394C64.0812 87.922 66.1623 89.4031 68.4859 90.376ZM56.4638 55.7821C58.898 53.324 61.7878 51.3742 64.9683 50.0439C68.1487 48.7136 71.5575 48.0289 75 48.0289C78.4425 48.0289 81.8513 48.7136 85.0317 50.0439C88.2122 51.3742 91.102 53.324 93.5362 55.7821C95.9704 58.2402 97.9013 61.1583 99.2187 64.3699C100.536 67.5816 101.214 71.0238 101.214 74.5C101.214 77.9762 100.536 81.4184 99.2187 84.6301C97.9013 87.8417 95.9704 90.7598 93.5362 93.2179C88.6201 98.1822 81.9524 100.971 75 100.971C68.0476 100.971 61.3799 98.1822 56.4638 93.2179C51.5477 88.2536 48.7859 81.5206 48.7859 74.5C48.7859 67.4794 51.5477 60.7464 56.4638 55.7821V55.7821ZM107.028 51.9711C107.631 51.3965 108.114 50.7055 108.448 49.9391C108.782 49.1726 108.96 48.3463 108.973 47.509C108.985 46.6717 108.83 45.8405 108.519 45.0645C108.207 44.2886 107.744 43.5837 107.158 42.9915C106.571 42.3994 105.873 41.9321 105.105 41.6173C104.336 41.3025 103.513 41.1466 102.684 41.1588C101.855 41.171 101.037 41.3511 100.278 41.6884C99.5186 42.0257 98.8343 42.5133 98.2653 43.1225C97.1586 44.3071 96.5527 45.8806 96.5763 47.509C96.5998 49.1374 97.2508 50.6924 98.3912 51.8439C99.5316 52.9955 101.071 53.6529 102.684 53.6767C104.297 53.7004 105.855 53.0886 107.028 51.9711V51.9711Z" fill="white"/>
</svg>
