<svg width="150" height="150" viewBox="0 0 150 150" fill="none" xmlns="http://www.w3.org/2000/svg">
<path d="M81.25 123.25H56.25V48.25H81.25V60.75C83.8818 57.4017 87.2221 54.6773 91.0311 52.7723C94.8401 50.8672 99.0235 49.8287 103.281 49.7313C110.727 49.7726 117.853 52.7651 123.096 58.0527C128.339 63.3403 131.272 70.4912 131.25 77.9375V123.25H106.25V81.0625C105.766 77.6848 104.079 74.5955 101.499 72.363C98.9183 70.1305 95.6184 68.9052 92.2063 68.9125C90.6791 68.9608 89.1775 69.3171 87.7914 69.96C86.4053 70.6029 85.1635 71.5192 84.1402 72.6539C83.117 73.7886 82.3336 75.1183 81.8369 76.5632C81.3403 78.0081 81.1406 79.5385 81.25 81.0625V123.25ZM43.75 123.25H18.75V48.25H43.75V123.25ZM31.25 35.75C27.9348 35.75 24.7554 34.433 22.4112 32.0888C20.067 29.7446 18.75 26.5652 18.75 23.25C18.75 19.9348 20.067 16.7554 22.4112 14.4112C24.7554 12.067 27.9348 10.75 31.25 10.75C34.5652 10.75 37.7446 12.067 40.0888 14.4112C42.433 16.7554 43.75 19.9348 43.75 23.25C43.75 26.5652 42.433 29.7446 40.0888 32.0888C37.7446 34.433 34.5652 35.75 31.25 35.75Z" fill="white"/>
</svg>
