<svg width="150" height="150" viewBox="0 0 150 150" fill="none" xmlns="http://www.w3.org/2000/svg">
<path d="M135.938 23.4375H14.0625C11.4697 23.4375 9.375 25.5322 9.375 28.125V121.875C9.375 124.468 11.4697 126.562 14.0625 126.562H135.938C138.53 126.562 140.625 124.468 140.625 121.875V28.125C140.625 25.5322 138.53 23.4375 135.938 23.4375ZM124.102 39.3896L77.8857 75.3516C76.7432 76.2451 75.1465 76.2451 74.0039 75.3516L27.7734 39.3896C27.5992 39.2552 27.4713 39.0695 27.4079 38.8587C27.3444 38.6479 27.3485 38.4226 27.4196 38.2142C27.4906 38.0059 27.6251 37.825 27.8042 37.6969C27.9832 37.5688 28.1978 37.5 28.418 37.5H123.457C123.677 37.5 123.892 37.5688 124.071 37.6969C124.25 37.825 124.384 38.0059 124.455 38.2142C124.526 38.4226 124.531 38.6479 124.467 38.8587C124.404 39.0695 124.276 39.2552 124.102 39.3896V39.3896Z" fill="white"/>
</svg>
