<svg width="150" height="150" viewBox="0 0 150 150" fill="none" xmlns="http://www.w3.org/2000/svg">
<path d="M130 39.7943C125.918 41.6183 121.533 42.8508 116.923 43.4079C121.68 40.5377 125.238 36.0202 126.935 30.6985C122.466 33.3754 117.575 35.2597 112.474 36.2693C109.045 32.5761 104.501 30.1282 99.5507 29.3056C94.5998 28.483 89.5182 29.3318 85.0947 31.7202C80.6712 34.1086 77.1534 37.9029 75.0874 42.5141C73.0214 47.1254 72.5227 52.2954 73.6689 57.2217C64.6138 56.7632 55.7554 54.3897 47.6687 50.2552C39.582 46.1207 32.4477 40.3176 26.7288 33.2226C24.7734 36.6243 23.649 40.5683 23.649 44.7686C23.6469 48.5499 24.5702 52.2732 26.3372 55.6083C28.1041 58.9434 30.66 61.787 33.7782 63.887C30.162 63.771 26.6256 62.7856 23.4633 61.0129V61.3087C23.4629 66.612 25.282 71.7522 28.6118 75.857C31.9417 79.9618 36.5772 82.7783 41.7319 83.8288C38.3773 84.7443 34.8602 84.8792 31.4463 84.2232C32.9007 88.7864 35.7336 92.7768 39.5485 95.6357C43.3634 98.4946 47.9693 100.079 52.7214 100.167C44.6544 106.553 34.6918 110.017 24.4361 110.002C22.6194 110.002 20.8043 109.895 19 109.682C29.4101 116.432 41.5282 120.014 53.9044 120C95.7995 120 118.703 85.007 118.703 54.6581C118.703 53.6721 118.678 52.6763 118.634 51.6903C123.089 48.4413 126.934 44.4181 129.99 39.8091L130 39.7943V39.7943Z" fill="white"/>
</svg>
