<svg width="150" height="150" viewBox="0 0 150 150" fill="none" xmlns="http://www.w3.org/2000/svg">
<path d="M130.64 44.735C129.98 42.2921 128.69 40.0642 126.898 38.2731C125.106 36.482 122.876 35.1902 120.428 34.5262C111.351 32.0405 75.0402 32 75.0402 32C75.0402 32 38.7346 31.9596 29.6525 34.3355C27.2062 35.03 24.9799 36.3401 23.1875 38.14C21.3951 39.9399 20.0967 42.1691 19.4169 44.6136C17.0232 53.6663 17 72.4422 17 72.4422C17 72.4422 16.9768 91.3106 19.3531 100.271C20.6862 105.225 24.5984 109.138 29.5713 110.474C38.7404 112.96 74.9532 113 74.9532 113C74.9532 113 111.265 113.04 120.341 110.67C122.79 110.008 125.023 108.719 126.819 106.931C128.615 105.144 129.912 102.92 130.582 100.479C132.982 91.432 132.999 72.6619 132.999 72.6619C132.999 72.6619 133.115 53.7877 130.64 44.735V44.735ZM63.4252 89.8365L63.4542 55.152L93.6334 72.5231L63.4252 89.8365V89.8365Z" fill="white"/>
</svg>
